<svg xmlns="http://www.w3.org/2000/svg" width="320" height="200" viewBox="0 0 320 200" fill="none" role="img" aria-label="Worksheet">
  <rect width="320" height="200" rx="18" fill="#FAAA48"/>
  <rect x="96" y="28" width="128" height="156" rx="10" fill="#FFFFFF" transform="rotate(-3 96 28)"/>
  <path d="M128 52 L152 30 L176 52 L152 74 Z" fill="#FFDDAC"/>
  <rect x="136" y="62" width="78" height="9" rx="4.5" fill="#2F0F03" transform="rotate(-3 136 62)"/>
  <rect x="136" y="82" width="70" height="7" rx="3.5" fill="#E8DCCB" transform="rotate(-3 136 82)"/>
  <rect x="136" y="98" width="78" height="7" rx="3.5" fill="#E8DCCB" transform="rotate(-3 136 98)"/>
  <rect x="136" y="122" width="60" height="7" rx="3.5" fill="#E8DCCB" transform="rotate(-3 136 122)"/>
  <path d="M230 84 L246 100 L262 76" stroke="#FFFFFF" stroke-width="7" stroke-linecap="round" stroke-linejoin="round"/>
  <path d="M230 84 L246 100 L262 76" stroke="#2F0F03" stroke-width="4" stroke-linecap="round" stroke-linejoin="round"/>
</svg>